<svg width="36" height="34" viewBox="0 0 36 34" fill="none" xmlns="http://www.w3.org/2000/svg">
<path d="M32.4564 7.33732H5.96529C5.35096 7.33732 4.85338 6.81199 4.85338 6.16338C4.85338 5.51478 5.35096 4.98945 5.96529 4.98945H32.651C33.2653 4.98945 33.7629 4.46411 33.7629 3.81551C33.7629 1.87044 32.2695 0.293701 30.4272 0.293701H4.85338C2.39677 0.293701 0.405762 2.39578 0.405762 4.98945V28.4682C0.405762 31.0618 2.39677 33.1639 4.85338 33.1639H32.4564C34.4037 33.1639 35.9867 31.5843 35.9867 29.6421V10.8591C35.9867 8.917 34.4037 7.33732 32.4564 7.33732ZM29.3153 22.5985C28.0873 22.5985 27.0915 21.5471 27.0915 20.2506C27.0915 18.9542 28.0873 17.9028 29.3153 17.9028C30.5433 17.9028 31.5391 18.9542 31.5391 20.2506C31.5391 21.5471 30.5433 22.5985 29.3153 22.5985Z" fill="#2F4E84"/>
</svg>
