<svg width="43" height="33" viewBox="0 0 43 33" fill="none" xmlns="http://www.w3.org/2000/svg">
<path d="M12.8662 16.7287C17.0119 16.7287 20.3674 13.1348 20.3674 8.69433C20.3674 4.25388 17.0119 0.659912 12.8662 0.659912C8.72036 0.659912 5.36489 4.25388 5.36489 8.69433C5.36489 13.1348 8.72036 16.7287 12.8662 16.7287ZM18.0099 19.0243H17.454C16.0609 19.7416 14.5138 20.1721 12.8662 20.1721C11.2186 20.1721 9.67812 19.7416 8.27833 19.0243H7.72243C3.46278 19.0243 0.00683594 22.7259 0.00683594 27.2883V29.3542C0.00683594 31.2552 1.44681 32.7976 3.22167 32.7976H22.5106C24.2855 32.7976 25.7255 31.2552 25.7255 29.3542V27.2883C25.7255 22.7259 22.2695 19.0243 18.0099 19.0243ZM32.1551 16.7287C35.7048 16.7287 38.5848 13.6441 38.5848 9.8421C38.5848 6.0401 35.7048 2.95546 32.1551 2.95546C28.6054 2.95546 25.7255 6.0401 25.7255 9.8421C25.7255 13.6441 28.6054 16.7287 32.1551 16.7287ZM35.37 19.0243H35.1155C34.1845 19.3686 33.2 19.5982 32.1551 19.5982C31.1103 19.5982 30.1258 19.3686 29.1948 19.0243H28.9403C27.574 19.0243 26.3149 19.4475 25.2098 20.129C26.844 22.0157 27.8687 24.5193 27.8687 27.2883V30.0429C27.8687 30.2007 27.8352 30.3514 27.8285 30.502H39.6564C41.4313 30.502 42.8712 28.9597 42.8712 27.0587C42.8712 22.6183 39.5158 19.0243 35.37 19.0243Z" fill="#2F4E84"/>
</svg>
