<svg width="43" height="32" viewBox="0 0 43 32" fill="none" xmlns="http://www.w3.org/2000/svg">
<path d="M41.9283 27.4192L31.8257 1.91317C31.4665 1.00611 30.6839 0.425049 29.8224 0.425049H22.7696L22.9467 2.27105C22.9828 2.64727 22.7147 2.97566 22.3714 2.97566H20.264C19.9207 2.97566 19.6526 2.64727 19.6887 2.27105L19.8658 0.425049H12.813C11.9508 0.425049 11.1681 1.00611 10.8089 1.91317L0.706347 27.4192C0.0378511 29.1082 1.10455 31.0323 2.71111 31.0323H16.9367L17.6818 23.2466C17.744 22.5978 18.2397 22.1052 18.8316 22.1052H23.8038C24.3957 22.1052 24.8914 22.5978 24.9536 23.2466L25.6987 31.0323H39.9243C41.5308 31.0323 42.5975 29.1082 41.9283 27.4192ZM19.323 6.09696C19.338 5.94025 19.4051 5.79522 19.5114 5.68983C19.6176 5.58445 19.7554 5.52618 19.8983 5.52626H22.7378C23.0334 5.52626 23.282 5.77256 23.3131 6.09696L23.6455 9.57057C23.6997 10.1357 23.2979 10.6275 22.7833 10.6275H19.8535C19.3382 10.6275 18.9371 10.1357 18.9913 9.57057L19.323 6.09696ZM23.3152 19.5546H19.3194C18.6329 19.5546 18.0974 18.8986 18.1696 18.1454L18.536 14.3195C18.5982 13.6707 19.094 13.1781 19.6858 13.1781H22.9488C23.5407 13.1781 24.0365 13.6707 24.0986 14.3195L24.465 18.1454C24.5373 18.8986 24.0018 19.5546 23.3152 19.5546Z" fill="#2F4E84"/>
</svg>
