<svg width="38" height="31" viewBox="0 0 38 31" fill="none" xmlns="http://www.w3.org/2000/svg">
<path d="M36.8608 21.3454H35.9247V15.0208C35.9247 14.2777 35.6263 13.5639 35.0997 13.0374L29.2549 7.1925C28.7283 6.66593 28.0145 6.36755 27.2715 6.36755H24.6913V3.5592C24.6913 2.00876 23.4334 0.750854 21.8829 0.750854H3.16064C1.6102 0.750854 0.352295 2.00876 0.352295 3.5592V22.2815C0.352295 23.8319 1.6102 25.0898 3.16064 25.0898H4.09676C4.09676 28.1907 6.61257 30.7065 9.71345 30.7065C12.8143 30.7065 15.3301 28.1907 15.3301 25.0898H22.8191C22.8191 28.1907 25.3349 30.7065 28.4358 30.7065C31.5366 30.7065 34.0524 28.1907 34.0524 25.0898H36.8608C37.3757 25.0898 37.7969 24.6686 37.7969 24.1537V22.2815C37.7969 21.7666 37.3757 21.3454 36.8608 21.3454ZM9.71345 27.8982C8.16301 27.8982 6.9051 26.6403 6.9051 25.0898C6.9051 23.5394 8.16301 22.2815 9.71345 22.2815C11.2639 22.2815 12.5218 23.5394 12.5218 25.0898C12.5218 26.6403 11.2639 27.8982 9.71345 27.8982ZM28.4358 27.8982C26.8853 27.8982 25.6274 26.6403 25.6274 25.0898C25.6274 23.5394 26.8853 22.2815 28.4358 22.2815C29.9862 22.2815 31.2441 23.5394 31.2441 25.0898C31.2441 26.6403 29.9862 27.8982 28.4358 27.8982ZM33.1163 15.7287H24.6913V9.17589H27.2715L33.1163 15.0208V15.7287Z" fill="#2F4E84"/>
</svg>
