<svg width="15" height="18" viewBox="0 0 15 18" fill="none" xmlns="http://www.w3.org/2000/svg">
<path d="M4.91814 10.2705H3.58891C3.36959 10.2705 3.19014 10.0939 3.19014 9.87797V8.56951C3.19014 8.35361 3.36959 8.17697 3.58891 8.17697H4.91814C5.13746 8.17697 5.31691 8.35361 5.31691 8.56951V9.87797C5.31691 10.0939 5.13746 10.2705 4.91814 10.2705ZM8.50705 9.87797V8.56951C8.50705 8.35361 8.32761 8.17697 8.10828 8.17697H6.77906C6.55973 8.17697 6.38029 8.35361 6.38029 8.56951V9.87797C6.38029 10.0939 6.55973 10.2705 6.77906 10.2705H8.10828C8.32761 10.2705 8.50705 10.0939 8.50705 9.87797ZM11.6972 9.87797V8.56951C11.6972 8.35361 11.5178 8.17697 11.2984 8.17697H9.9692C9.74988 8.17697 9.57043 8.35361 9.57043 8.56951V9.87797C9.57043 10.0939 9.74988 10.2705 9.9692 10.2705H11.2984C11.5178 10.2705 11.6972 10.0939 11.6972 9.87797ZM8.50705 13.0183V11.7098C8.50705 11.4939 8.32761 11.3173 8.10828 11.3173H6.77906C6.55973 11.3173 6.38029 11.4939 6.38029 11.7098V13.0183C6.38029 13.2342 6.55973 13.4108 6.77906 13.4108H8.10828C8.32761 13.4108 8.50705 13.2342 8.50705 13.0183ZM5.31691 13.0183V11.7098C5.31691 11.4939 5.13746 11.3173 4.91814 11.3173H3.58891C3.36959 11.3173 3.19014 11.4939 3.19014 11.7098V13.0183C3.19014 13.2342 3.36959 13.4108 3.58891 13.4108H4.91814C5.13746 13.4108 5.31691 13.2342 5.31691 13.0183ZM11.6972 13.0183V11.7098C11.6972 11.4939 11.5178 11.3173 11.2984 11.3173H9.9692C9.74988 11.3173 9.57043 11.4939 9.57043 11.7098V13.0183C9.57043 13.2342 9.74988 13.4108 9.9692 13.4108H11.2984C11.5178 13.4108 11.6972 13.2342 11.6972 13.0183ZM14.8873 4.51329V16.0277C14.8873 16.8946 14.1729 17.5979 13.2923 17.5979H1.59507C0.714459 17.5979 0 16.8946 0 16.0277V4.51329C0 3.64644 0.714459 2.94314 1.59507 2.94314H3.19014V1.24215C3.19014 1.02625 3.36959 0.849609 3.58891 0.849609H4.91814C5.13746 0.849609 5.31691 1.02625 5.31691 1.24215V2.94314H9.57043V1.24215C9.57043 1.02625 9.74988 0.849609 9.9692 0.849609H11.2984C11.5178 0.849609 11.6972 1.02625 11.6972 1.24215V2.94314H13.2923C14.1729 2.94314 14.8873 3.64644 14.8873 4.51329ZM13.2923 15.8315V6.08344H1.59507V15.8315C1.59507 15.9394 1.6848 16.0277 1.79446 16.0277H13.0929C13.2025 16.0277 13.2923 15.9394 13.2923 15.8315Z" fill="#9F9F9F"/>
</svg>
