<svg width="40" height="35" viewBox="0 0 40 35" fill="none" xmlns="http://www.w3.org/2000/svg">
<path d="M19.7984 0.00646973C15.043 0.00646973 11.1883 3.8612 11.1883 8.61656C11.1883 12.461 16.8156 19.468 18.9715 22.0114C19.4082 22.5266 20.1892 22.5266 20.6252 22.0114C22.7812 19.468 28.4085 12.461 28.4085 8.61656C28.4085 3.8612 24.5537 0.00646973 19.7984 0.00646973V0.00646973ZM19.7984 11.4866C18.213 11.4866 16.9283 10.2019 16.9283 8.61656C16.9283 7.03121 18.213 5.74653 19.7984 5.74653C21.3837 5.74653 22.6684 7.03121 22.6684 8.61656C22.6684 10.2019 21.3837 11.4866 19.7984 11.4866ZM1.49305 14.7632C1.08726 14.9255 0.73941 15.2057 0.49435 15.5675C0.249289 15.9294 0.118261 16.3564 0.118164 16.7934L0.118164 33.8988C0.118164 34.6723 0.899223 35.2013 1.61741 34.9142L11.0516 30.6201V14.6928C10.4475 13.6009 9.95349 12.5376 9.59952 11.5208L1.49305 14.7632ZM19.7984 24.5842C18.8369 24.5842 17.9274 24.1619 17.3035 23.4252C15.9601 21.8399 14.5312 20.0345 13.2383 18.1826V30.6194L26.3584 34.9928V18.1833C25.0656 20.0345 23.6374 21.8406 22.2933 23.4259C21.6694 24.1619 20.7598 24.5842 19.7984 24.5842ZM37.9793 11.0192L28.5451 15.3133V34.9935L38.1037 31.1702C38.5095 31.008 38.8575 30.7279 39.1025 30.366C39.3476 30.0041 39.4786 29.5771 39.4786 29.14V12.0346C39.4786 11.2611 38.6975 10.7322 37.9793 11.0192Z" fill="#2F4E84"/>
</svg>
