<svg width="25" height="25" viewBox="0 0 25 25" fill="none" xmlns="http://www.w3.org/2000/svg">
<path d="M9.28001 10.2321C9.28001 9.39715 8.60291 8.72005 7.76801 8.72005H7.01201C5.34172 8.72005 3.98801 10.0738 3.98801 11.7441V14.0121C3.98801 15.6823 5.34172 17.0361 7.01201 17.0361H7.76801C8.60291 17.0361 9.28001 16.359 9.28001 15.5241V10.2321ZM17.596 17.0361C19.2663 17.0361 20.62 15.6823 20.62 14.0121V11.7441C20.62 10.0738 19.2663 8.72005 17.596 8.72005H16.84C16.0051 8.72005 15.328 9.39715 15.328 10.2321V15.5241C15.328 16.359 16.0051 17.0361 16.84 17.0361H17.596ZM12.304 0.404053C5.55576 0.404053 0.424413 6.01877 0.208008 12.5001V13.2561C0.208008 13.6737 0.546318 14.0121 0.964008 14.0121H1.72001C2.1377 14.0121 2.47601 13.6737 2.47601 13.2561V12.5001C2.47601 7.08095 6.8849 2.67205 12.304 2.67205C17.7231 2.67205 22.132 7.08095 22.132 12.5001H22.1263C22.1301 12.6149 22.132 20.3303 22.132 20.3303C22.132 21.4336 21.2376 22.3281 20.1343 22.3281H15.328C15.328 21.0755 14.3126 20.0601 13.06 20.0601H11.548C10.2954 20.0601 9.28001 21.0755 9.28001 22.3281C9.28001 23.5807 10.2954 24.5961 11.548 24.5961H20.1343C22.4902 24.5961 24.4 22.6862 24.4 20.3303V12.5001C24.1836 6.01877 19.0523 0.404053 12.304 0.404053Z" fill="#2F4E84"/>
</svg>
