<svg width="41" height="29" viewBox="0 0 41 29" fill="none" xmlns="http://www.w3.org/2000/svg">
<path d="M39.7137 2.06745C37.2773 1.06379 34.8391 0.681946 32.4021 0.681946C24.6661 0.681329 16.9306 4.52755 9.19452 4.52755C7.25437 4.52755 5.31548 4.28574 3.37534 3.6812C3.15739 3.61334 2.93882 3.58126 2.72527 3.58126C1.64434 3.58126 0.699707 4.40294 0.699707 5.54354V25.1146C0.699707 25.8937 1.15381 26.6321 1.88301 26.9319C4.31934 27.9361 6.75756 28.318 9.19452 28.318C16.9306 28.318 24.6667 24.4718 32.4028 24.4718C34.3429 24.4718 36.2818 24.7136 38.222 25.3181C38.4399 25.386 38.6585 25.4181 38.872 25.4181C39.953 25.4181 40.8976 24.5964 40.8976 23.4558V3.88538C40.897 3.10565 40.4429 2.36787 39.7137 2.06745ZM3.7145 6.86428C4.9782 7.17518 6.29717 7.33125 7.65383 7.41515C7.28452 9.22814 5.66156 10.5945 3.7145 10.5945V6.86428ZM3.7145 24.4452V21.4978C5.87322 21.4978 7.61992 23.18 7.71601 25.2854C6.30094 25.1738 4.9782 24.8962 3.7145 24.4452ZM20.7983 20.422C18.0228 20.422 15.7737 17.77 15.7737 14.5C15.7737 11.2293 18.0235 8.57796 20.7983 8.57796C23.5732 8.57796 25.823 11.2293 25.823 14.5C25.823 17.7713 23.5726 20.422 20.7983 20.422ZM37.8822 22.1357C36.7818 21.8648 35.6393 21.7131 34.4704 21.615C34.8391 20.0062 36.1977 18.7848 37.8822 18.575V22.1357ZM37.8822 7.5706C35.942 7.3294 34.4365 5.73848 34.3768 3.77373C35.6041 3.90759 36.7692 4.15804 37.8822 4.55469V7.5706Z" fill="#2F4E84"/>
</svg>
