<svg width="28" height="32" viewBox="0 0 28 32" fill="none" xmlns="http://www.w3.org/2000/svg">
<path d="M19.0457 18.4627C17.3027 18.4627 16.4646 19.4344 13.6041 19.4344C10.7436 19.4344 9.91153 18.4627 8.16243 18.4627C3.65609 18.4627 0 22.1187 0 26.6251V28.1798C0 29.7892 1.30575 31.095 2.91516 31.095H24.293C25.9024 31.095 27.2081 29.7892 27.2081 28.1798V26.6251C27.2081 22.1187 23.552 18.4627 19.0457 18.4627ZM24.293 28.1798H2.91516V26.6251C2.91516 23.7342 5.27157 21.3778 8.16243 21.3778C9.04913 21.3778 10.4885 22.3495 13.6041 22.3495C16.7439 22.3495 18.1529 21.3778 19.0457 21.3778C21.9365 21.3778 24.293 23.7342 24.293 26.6251V28.1798ZM13.6041 17.4909C18.4323 17.4909 22.3495 13.5737 22.3495 8.74547C22.3495 3.91724 18.4323 0 13.6041 0C8.77583 0 4.85859 3.91724 4.85859 8.74547C4.85859 13.5737 8.77583 17.4909 13.6041 17.4909ZM13.6041 2.91516C16.8168 2.91516 19.4344 5.53272 19.4344 8.74547C19.4344 11.9582 16.8168 14.5758 13.6041 14.5758C10.3913 14.5758 7.77375 11.9582 7.77375 8.74547C7.77375 5.53272 10.3913 2.91516 13.6041 2.91516Z" fill="#9F9F9F"/>
</svg>
