<svg width="24" height="32" viewBox="0 0 24 32" fill="none" xmlns="http://www.w3.org/2000/svg">
<path d="M10.4568 30.4516C1.63709 17.6657 0 16.3535 0 11.6545C0 5.21788 5.21788 0 11.6545 0C18.0911 0 23.309 5.21788 23.309 11.6545C23.309 16.3535 21.6719 17.6657 12.8522 30.4516C12.2735 31.2877 11.0355 31.2877 10.4568 30.4516ZM11.6545 16.5105C14.3364 16.5105 16.5105 14.3364 16.5105 11.6545C16.5105 8.97257 14.3364 6.79846 11.6545 6.79846C8.97257 6.79846 6.79846 8.97257 6.79846 11.6545C6.79846 14.3364 8.97257 16.5105 11.6545 16.5105Z" fill="#9F9F9F"/>
</svg>
