<svg width="21" height="21" viewBox="0 0 21 21" fill="none" xmlns="http://www.w3.org/2000/svg">
<path d="M16.5542 12.9361H12.9002C12.2303 12.9361 11.6822 12.388 11.6822 11.7181C11.6822 11.0482 12.2303 10.5001 12.9002 10.5001H16.5542C16.5542 10.5001 20.2082 6.42742 20.2082 4.4101C20.2082 2.39279 18.5715 0.756104 16.5542 0.756104C14.5369 0.756104 12.9002 2.39279 12.9002 4.4101C12.9002 5.3807 13.7452 6.82327 14.6244 8.0641H12.9002C10.8867 8.0641 9.24621 9.7046 9.24621 11.7181C9.24621 13.7316 10.8867 15.3721 12.9002 15.3721H16.5542C17.2241 15.3721 17.7722 15.9202 17.7722 16.5901C17.7722 17.26 17.2241 17.8081 16.5542 17.8081H7.78081C7.17181 18.7521 6.4943 19.6237 5.98045 20.2441H16.5542C18.5677 20.2441 20.2082 18.6036 20.2082 16.5901C20.2082 14.5766 18.5677 12.9361 16.5542 12.9361ZM16.5542 3.1921C17.2279 3.1921 17.7722 3.7364 17.7722 4.4101C17.7722 5.08381 17.2279 5.6281 16.5542 5.6281C15.8805 5.6281 15.3362 5.08381 15.3362 4.4101C15.3362 3.7364 15.8805 3.1921 16.5542 3.1921ZM4.37422 10.5001C2.3569 10.5001 0.720215 12.1368 0.720215 14.1541C0.720215 16.1714 4.37422 20.2441 4.37422 20.2441C4.37422 20.2441 8.02822 16.1714 8.02822 14.1541C8.02822 12.1368 6.39153 10.5001 4.37422 10.5001ZM4.37422 15.3721C3.70051 15.3721 3.15621 14.8278 3.15621 14.1541C3.15621 13.4804 3.70051 12.9361 4.37422 12.9361C5.04792 12.9361 5.59222 13.4804 5.59222 14.1541C5.59222 14.8278 5.04792 15.3721 4.37422 15.3721Z" fill="#2F4E84"/>
</svg>
