<svg width="23" height="23" viewBox="0 0 23 23" fill="none" xmlns="http://www.w3.org/2000/svg">
<path d="M11.529 0.337341C5.55746 0.337341 0.719238 5.24876 0.719238 11.3106C0.719238 17.3724 5.55746 22.2839 11.529 22.2839C17.5005 22.2839 22.3387 17.3724 22.3387 11.3106C22.3387 5.24876 17.5005 0.337341 11.529 0.337341ZM15.5604 14.1867L14.6886 15.2928C14.6314 15.3654 14.5607 15.4259 14.4805 15.4707C14.4002 15.5156 14.3121 15.544 14.2211 15.5542C14.13 15.5645 14.0379 15.5565 13.9499 15.5306C13.862 15.5047 13.7799 15.4615 13.7083 15.4034L10.788 13.2035C10.5839 13.0376 10.4192 12.8273 10.306 12.5882C10.1929 12.349 10.1341 12.087 10.1342 11.8217V4.93903C10.1342 4.75127 10.2076 4.5712 10.3384 4.43843C10.4692 4.30567 10.6466 4.23108 10.8316 4.23108H12.2264C12.4113 4.23108 12.5887 4.30567 12.7195 4.43843C12.8503 4.5712 12.9238 4.75127 12.9238 4.93903V11.3106L15.4518 13.1911C15.5234 13.2492 15.583 13.3211 15.6272 13.4026C15.6713 13.4841 15.6993 13.5736 15.7094 13.666C15.7194 13.7585 15.7115 13.8521 15.6859 13.9414C15.6603 14.0307 15.6177 14.1141 15.5604 14.1867Z" fill="#2F4E84"/>
</svg>
